<?xml version="1.0" encoding="UTF-8" standalone="no"?>
<!-- Created with Inkscape (http://www.inkscape.org/) -->

<svg
   xmlns:dc="http://purl.org/dc/elements/1.1/"
   xmlns:cc="http://creativecommons.org/ns#"
   xmlns:rdf="http://www.w3.org/1999/02/22-rdf-syntax-ns#"
   xmlns:svg="http://www.w3.org/2000/svg"
   xmlns="http://www.w3.org/2000/svg"
   xmlns:xlink="http://www.w3.org/1999/xlink"
   xmlns:sodipodi="http://sodipodi.sourceforge.net/DTD/sodipodi-0.dtd"
   xmlns:inkscape="http://www.inkscape.org/namespaces/inkscape"
   width="96"
   height="96"
   id="svg2408"
   sodipodi:version="0.32"
   inkscape:version="0.48.2 r9819"
   version="1.0"
   sodipodi:docname="fhsr-extension-logo.svg"
   inkscape:output_extension="org.inkscape.output.svg.inkscape"
   inkscape:export-filename="/home/rfkrocktk/Desktop/fhsr-extension-logo.png"
   inkscape:export-xdpi="599.91766"
   inkscape:export-ydpi="599.91766">
  <defs
     id="defs2410">
    <inkscape:perspective
       sodipodi:type="inkscape:persp3d"
       inkscape:vp_x="0 : 48 : 1"
       inkscape:vp_y="0 : 1000 : 0"
       inkscape:vp_z="96 : 48 : 1"
       inkscape:persp3d-origin="48 : 32 : 1"
       id="perspective48" />
    <linearGradient
       id="ButtonShadow"
       gradientTransform="scale(1.0058652,0.994169)"
       x1="45.447727"
       y1="92.539597"
       x2="45.447727"
       y2="7.0165396"
       gradientUnits="userSpaceOnUse">
      <stop
         style="stop-color:#000000;stop-opacity:1;"
         offset="0"
         id="stop3750" />
      <stop
         style="stop-color:#000000;stop-opacity:0.58823532;"
         offset="1"
         id="stop3752" />
    </linearGradient>
    <linearGradient
       inkscape:collect="always"
       id="linearGradient3737">
      <stop
         style="stop-color:#ffffff;stop-opacity:1;"
         offset="0"
         id="stop3739" />
      <stop
         style="stop-color:#ffffff;stop-opacity:0;"
         offset="1"
         id="stop3741" />
    </linearGradient>
    <linearGradient
       id="linearGradient3700">
      <stop
         style="stop-color:#bebebe;stop-opacity:1;"
         offset="0"
         id="stop3702" />
      <stop
         style="stop-color:#dcdcdc;stop-opacity:1;"
         offset="1"
         id="stop3704" />
    </linearGradient>
    <filter
       inkscape:collect="always"
       id="filter3174">
      <feGaussianBlur
         inkscape:collect="always"
         stdDeviation="1.71"
         id="feGaussianBlur3176" />
    </filter>
    <linearGradient
       inkscape:collect="always"
       xlink:href="#linearGradient3737"
       id="linearGradient3188"
       gradientUnits="userSpaceOnUse"
       x1="36.357143"
       y1="6"
       x2="36.357143"
       y2="63.893143" />
    <filter
       inkscape:collect="always"
       id="filter3794"
       x="-0.192"
       width="1.384"
       y="-0.192"
       height="1.384">
      <feGaussianBlur
         inkscape:collect="always"
         stdDeviation="5.28"
         id="feGaussianBlur3796" />
    </filter>
    <linearGradient
       inkscape:collect="always"
       xlink:href="#linearGradient3737"
       id="linearGradient3613"
       x1="48"
       y1="20.220806"
       x2="48"
       y2="138.66119"
       gradientUnits="userSpaceOnUse" />
    <radialGradient
       inkscape:collect="always"
       xlink:href="#linearGradient3737"
       id="radialGradient3619"
       cx="48"
       cy="90.171875"
       fx="48"
       fy="90.171875"
       r="42"
       gradientTransform="matrix(1.1573129,0,0,0.99590774,-7.5510206,0.19713193)"
       gradientUnits="userSpaceOnUse" />
    <clipPath
       clipPathUnits="userSpaceOnUse"
       id="clipPath3613">
      <rect
         ry="6"
         rx="6"
         y="6"
         x="6"
         height="84"
         width="84"
         id="rect3615"
         style="fill:#ffffff;fill-opacity:1;fill-rule:nonzero;stroke:none" />
    </clipPath>
    <linearGradient
       inkscape:collect="always"
       xlink:href="#linearGradient3700"
       id="linearGradient3617"
       gradientUnits="userSpaceOnUse"
       x1="48"
       y1="90"
       x2="48"
       y2="5.9877172" />
    <linearGradient
       id="ButtonShadow-0"
       gradientTransform="matrix(1.0058652,0,0,0.994169,100,0)"
       x1="45.447727"
       y1="92.539597"
       x2="45.447727"
       y2="7.0165396"
       gradientUnits="userSpaceOnUse">
      <stop
         style="stop-color:#000000;stop-opacity:1;"
         offset="0"
         id="stop3750-8" />
      <stop
         style="stop-color:#000000;stop-opacity:0.58823532;"
         offset="1"
         id="stop3752-5" />
    </linearGradient>
    <linearGradient
       inkscape:collect="always"
       xlink:href="#ButtonShadow-0"
       id="linearGradient3780"
       gradientUnits="userSpaceOnUse"
       gradientTransform="matrix(1.0238095,0,0,1.0119048,-1.1428571,-98.071429)"
       x1="32.251034"
       y1="6.1317081"
       x2="32.251034"
       y2="90.238609" />
    <linearGradient
       inkscape:collect="always"
       xlink:href="#ButtonShadow-0"
       id="linearGradient3772"
       gradientUnits="userSpaceOnUse"
       gradientTransform="matrix(1.0238095,0,0,1.0119048,-1.1428571,-98.071429)"
       x1="32.251034"
       y1="6.1317081"
       x2="32.251034"
       y2="90.238609" />
    <linearGradient
       inkscape:collect="always"
       xlink:href="#ButtonShadow-0"
       id="linearGradient3725"
       gradientUnits="userSpaceOnUse"
       gradientTransform="matrix(1.0238095,0,0,1.0119048,-1.1428571,-98.071429)"
       x1="32.251034"
       y1="6.1317081"
       x2="32.251034"
       y2="90.238609" />
    <linearGradient
       inkscape:collect="always"
       xlink:href="#ButtonShadow-0"
       id="linearGradient3721"
       gradientUnits="userSpaceOnUse"
       gradientTransform="translate(0,-97)"
       x1="32.251034"
       y1="6.1317081"
       x2="32.251034"
       y2="90.238609" />
    <linearGradient
       y2="90.238609"
       x2="32.251034"
       y1="6.1317081"
       x1="32.251034"
       gradientTransform="matrix(1.0238095,0,0,1.0119048,-1.1428571,-98.071429)"
       gradientUnits="userSpaceOnUse"
       id="linearGradient3026"
       xlink:href="#ButtonShadow-0"
       inkscape:collect="always" />
    <inkscape:perspective
       id="perspective3151"
       inkscape:persp3d-origin="0.5 : 0.33333333 : 1"
       inkscape:vp_z="1 : 0.5 : 1"
       inkscape:vp_y="0 : 1000 : 0"
       inkscape:vp_x="0 : 0.5 : 1"
       sodipodi:type="inkscape:persp3d" />
    <inkscape:perspective
       id="perspective2867"
       inkscape:persp3d-origin="0.5 : 0.33333333 : 1"
       inkscape:vp_z="1 : 0.5 : 1"
       inkscape:vp_y="0 : 1000 : 0"
       inkscape:vp_x="0 : 0.5 : 1"
       sodipodi:type="inkscape:persp3d" />
    <linearGradient
       inkscape:collect="always"
       xlink:href="#StandardGradient"
       id="linearGradient3227"
       gradientUnits="userSpaceOnUse"
       gradientTransform="matrix(0.9219544,0,0,1.0846523,-0.01723507,-0.03125)"
       x1="11.998966"
       y1="2.7658634"
       x2="11.998966"
       y2="15.702114" />
    <linearGradient
       id="StandardGradient"
       gradientTransform="scale(0.9219544,1.0846523)"
       x1="11.998966"
       y1="0.92195445"
       x2="11.998966"
       y2="19.387045"
       gradientUnits="userSpaceOnUse">
      <stop
         style="stop-color:#000000;stop-opacity:0.86274511;"
         offset="0"
         id="stop3283" />
      <stop
         style="stop-color:#000000;stop-opacity:0.47058824;"
         offset="1"
         id="stop2651" />
    </linearGradient>
    <linearGradient
       y2="15.702114"
       x2="11.998966"
       y1="2.7658634"
       x1="11.998966"
       gradientTransform="matrix(0.9219544,0,0,1.0846523,55.982765,25.96875)"
       gradientUnits="userSpaceOnUse"
       id="linearGradient2876"
       xlink:href="#StandardGradient"
       inkscape:collect="always" />
    <linearGradient
       inkscape:collect="always"
       xlink:href="#StandardGradient"
       id="linearGradient3680"
       x1="56"
       y1="16"
       x2="56"
       y2="80"
       gradientUnits="userSpaceOnUse"
       gradientTransform="matrix(0.94249199,0,0,0.94249199,2.7603835,0.8754023)" />
    <linearGradient
       inkscape:collect="always"
       xlink:href="#StandardGradient"
       id="linearGradient3686"
       gradientUnits="userSpaceOnUse"
       gradientTransform="matrix(0.94249199,0,0,0.94249199,2.7603835,1.8754023)"
       x1="56"
       y1="16"
       x2="56"
       y2="80" />
    <linearGradient
       inkscape:collect="always"
       xlink:href="#StandardGradient"
       id="linearGradient3688"
       gradientUnits="userSpaceOnUse"
       gradientTransform="matrix(0.94249199,0,0,0.94249199,2.7603835,0.8754023)"
       x1="56"
       y1="16"
       x2="56"
       y2="80" />
    <linearGradient
       inkscape:collect="always"
       xlink:href="#StandardGradient"
       id="linearGradient3707"
       gradientUnits="userSpaceOnUse"
       gradientTransform="matrix(0.94249199,0,0,0.94249199,2.7603835,1.8754023)"
       x1="56"
       y1="16"
       x2="56"
       y2="80" />
    <linearGradient
       inkscape:collect="always"
       xlink:href="#StandardGradient"
       id="linearGradient3711"
       gradientUnits="userSpaceOnUse"
       gradientTransform="matrix(0.94249199,0,0,0.94249199,2.7603835,0.8754023)"
       x1="56"
       y1="16"
       x2="56"
       y2="80" />
    <inkscape:perspective
       id="perspective3723"
       inkscape:persp3d-origin="0.5 : 0.33333333 : 1"
       inkscape:vp_z="1 : 0.5 : 1"
       inkscape:vp_y="0 : 1000 : 0"
       inkscape:vp_x="0 : 0.5 : 1"
       sodipodi:type="inkscape:persp3d" />
    <linearGradient
       inkscape:collect="always"
       xlink:href="#StandardGradient-3"
       id="linearGradient3680-3"
       x1="56"
       y1="16"
       x2="56"
       y2="80"
       gradientUnits="userSpaceOnUse"
       gradientTransform="matrix(0.94249199,0,0,0.94249199,2.7603835,0.8754023)" />
    <linearGradient
       id="StandardGradient-3"
       gradientTransform="scale(0.9219544,1.0846523)"
       x1="11.998966"
       y1="0.92195445"
       x2="11.998966"
       y2="19.387045"
       gradientUnits="userSpaceOnUse">
      <stop
         style="stop-color:#000000;stop-opacity:0.86274511;"
         offset="0"
         id="stop3283-5" />
      <stop
         style="stop-color:#000000;stop-opacity:0.47058824;"
         offset="1"
         id="stop2651-2" />
    </linearGradient>
    <linearGradient
       y2="80"
       x2="56"
       y1="16"
       x1="56"
       gradientTransform="matrix(0.94249199,0,0,0.94249199,-97.239616,0.875402)"
       gradientUnits="userSpaceOnUse"
       id="linearGradient3736"
       xlink:href="#StandardGradient-3"
       inkscape:collect="always" />
    <linearGradient
       inkscape:collect="always"
       xlink:href="#StandardGradient"
       id="linearGradient3829"
       x1="49"
       y1="20"
       x2="49"
       y2="76"
       gradientUnits="userSpaceOnUse" />
    <linearGradient
       inkscape:collect="always"
       xlink:href="#StandardGradient"
       id="linearGradient3835"
       gradientUnits="userSpaceOnUse"
       x1="49"
       y1="20"
       x2="49"
       y2="76"
       gradientTransform="translate(0,1)" />
    <linearGradient
       inkscape:collect="always"
       xlink:href="#StandardGradient"
       id="linearGradient3837"
       gradientUnits="userSpaceOnUse"
       x1="49"
       y1="20"
       x2="49"
       y2="76" />
    <linearGradient
       inkscape:collect="always"
       xlink:href="#StandardGradient"
       id="linearGradient3846"
       gradientUnits="userSpaceOnUse"
       x1="49"
       y1="20"
       x2="49"
       y2="76" />
    <linearGradient
       inkscape:collect="always"
       xlink:href="#StandardGradient"
       id="linearGradient3853"
       gradientUnits="userSpaceOnUse"
       x1="49"
       y1="20"
       x2="49"
       y2="76" />
    <linearGradient
       inkscape:collect="always"
       xlink:href="#StandardGradient"
       id="linearGradient3857"
       gradientUnits="userSpaceOnUse"
       x1="49"
       y1="20"
       x2="49"
       y2="76" />
    <linearGradient
       inkscape:collect="always"
       xlink:href="#StandardGradient"
       id="linearGradient3859"
       gradientUnits="userSpaceOnUse"
       x1="49"
       y1="20"
       x2="49"
       y2="76" />
    <linearGradient
       inkscape:collect="always"
       xlink:href="#StandardGradient"
       id="linearGradient3864"
       gradientUnits="userSpaceOnUse"
       x1="49"
       y1="20"
       x2="49"
       y2="76"
       gradientTransform="translate(0,1)" />
    <linearGradient
       inkscape:collect="always"
       xlink:href="#StandardGradient"
       id="linearGradient3868"
       gradientUnits="userSpaceOnUse"
       x1="49"
       y1="20"
       x2="49"
       y2="76" />
  </defs>
  <sodipodi:namedview
     id="base"
     pagecolor="#ffffff"
     bordercolor="#666666"
     borderopacity="1.0"
     inkscape:pageopacity="0.0"
     inkscape:pageshadow="2"
     inkscape:zoom="2.5482656"
     inkscape:cx="14.327003"
     inkscape:cy="2.1218847"
     inkscape:document-units="px"
     inkscape:current-layer="layer4"
     showgrid="true"
     showborder="true"
     inkscape:showpageshadow="false"
     inkscape:window-width="960"
     inkscape:window-height="1029"
     inkscape:window-x="2654"
     inkscape:window-y="24"
     inkscape:window-maximized="0">
    <inkscape:grid
       type="xygrid"
       id="grid3732"
       visible="true"
       enabled="true" />
  </sodipodi:namedview>
  <metadata
     id="metadata2413">
    <rdf:RDF>
      <cc:Work
         rdf:about="">
        <dc:format>image/svg+xml</dc:format>
        <dc:type
           rdf:resource="http://purl.org/dc/dcmitype/StillImage" />
        <dc:title></dc:title>
      </cc:Work>
    </rdf:RDF>
  </metadata>
  <g
     inkscape:groupmode="layer"
     id="layer2"
     inkscape:label="Blur Shadow"
     style="display:none"
     sodipodi:insensitive="true">
    <rect
       style="opacity:0.9;fill:url(#ButtonShadow);fill-opacity:1;fill-rule:nonzero;stroke:none;filter:url(#filter3174)"
       id="rect3745"
       width="86"
       height="85"
       x="5"
       y="7"
       rx="6"
       ry="6" />
  </g>
  <g
     inkscape:groupmode="layer"
     id="layer3"
     inkscape:label="Shadow"
     sodipodi:insensitive="true">
    <path
       sodipodi:type="inkscape:offset"
       inkscape:radius="0.99097413"
       inkscape:original="M 12 -94.03125 C 7.028367 -94.03125 2.96875 -89.971633 2.96875 -85 L 2.96875 -14 C 2.96875 -9.0283671 7.0283671 -4.96875 12 -4.96875 L 84 -4.96875 C 88.971633 -4.96875 93.03125 -9.028367 93.03125 -14 L 93.03125 -85 C 93.03125 -89.971633 88.971633 -94.03125 84 -94.03125 L 12 -94.03125 z "
       style="opacity:0.07999998;fill:url(#linearGradient3026);fill-opacity:1;fill-rule:nonzero;stroke:none;display:inline"
       id="path3786"
       d="m 12,-95.03125 c -5.5110903,0 -10.03125,4.52016 -10.03125,10.03125 l 0,71 c 0,5.5110902 4.5201598,10.03125 10.03125,10.03125 l 72,0 c 5.51109,0 10.03125,-4.5201597 10.03125,-10.03125 l 0,-71 c 0,-5.51109 -4.52016,-10.03125 -10.03125,-10.03125 l -72,0 z"
       transform="scale(1,-1)" />
    <path
       sodipodi:type="inkscape:offset"
       inkscape:radius="1.0360184"
       inkscape:original="M 12 -93 C 7.5908667 -93 4 -89.409133 4 -85 L 4 -14 C 4 -9.5908667 7.5908667 -6 12 -6 L 84 -6 C 88.409133 -6 92 -9.5908667 92 -14 L 92 -85 C 92 -89.409133 88.409133 -93 84 -93 L 12 -93 z "
       style="opacity:0.1;fill:url(#linearGradient3780);fill-opacity:1;fill-rule:nonzero;stroke:none;display:inline"
       id="path3778"
       d="m 12,-94.03125 c -4.971633,0 -9.03125,4.059617 -9.03125,9.03125 l 0,71 c 0,4.9716329 4.0596171,9.03125 9.03125,9.03125 l 72,0 c 4.971633,0 9.03125,-4.059617 9.03125,-9.03125 l 0,-71 c 0,-4.971633 -4.059617,-9.03125 -9.03125,-9.03125 l -72,0 z"
       transform="scale(1,-1)" />
    <path
       sodipodi:type="inkscape:offset"
       inkscape:radius="0.98962283"
       inkscape:original="M 12 -92 C 8.122 -92 5 -88.878 5 -85 L 5 -14 C 5 -10.122 8.122 -7 12 -7 L 84 -7 C 87.878 -7 91 -10.122 91 -14 L 91 -85 C 91 -88.878 87.878 -92 84 -92 L 12 -92 z "
       style="opacity:0.2;fill:url(#linearGradient3772);fill-opacity:1;fill-rule:nonzero;stroke:none;display:inline"
       id="path3770"
       d="m 12,-93 c -4.4091333,0 -8,3.590867 -8,8 l 0,71 c 0,4.4091333 3.5908667,8 8,8 l 72,0 c 4.409133,0 8,-3.5908667 8,-8 l 0,-71 c 0,-4.409133 -3.590867,-8 -8,-8 l -72,0 z"
       transform="scale(1,-1)" />
    <rect
       style="opacity:0.3;fill:url(#linearGradient3725);fill-opacity:1;fill-rule:nonzero;stroke:none;display:inline"
       id="rect3723"
       width="86"
       height="85"
       x="5"
       y="-92"
       rx="7"
       ry="7"
       transform="scale(1,-1)" />
    <rect
       transform="scale(1,-1)"
       ry="6"
       rx="6"
       y="-91"
       x="6"
       height="84"
       width="84"
       id="rect3716"
       style="opacity:0.45;fill:url(#linearGradient3721);fill-opacity:1;fill-rule:nonzero;stroke:none;display:inline" />
  </g>
  <g
     inkscape:label="Button"
     inkscape:groupmode="layer"
     id="layer1"
     sodipodi:insensitive="true">
    <rect
       style="fill:url(#linearGradient3617);fill-opacity:1;fill-rule:nonzero;stroke:none"
       id="rect2419"
       width="84"
       height="84"
       x="6"
       y="6"
       rx="6"
       ry="6" />
    <path
       style="opacity:0.5;fill:url(#linearGradient3188);fill-opacity:1;fill-rule:nonzero;stroke:none"
       d="M 12,6 C 8.676,6 6,8.676 6,12 l 0,2 0,68 0,2 c 0,0.334721 0.04135,0.6507 0.09375,0.96875 0.0487,0.295596 0.09704,0.596915 0.1875,0.875 0.00988,0.03038 0.020892,0.0636 0.03125,0.09375 0.098865,0.287771 0.2348802,0.547452 0.375,0.8125 0.1445918,0.273507 0.3156161,0.535615 0.5,0.78125 0.1843839,0.245635 0.3737765,0.473472 0.59375,0.6875 0.439947,0.428056 0.94291,0.814526 1.5,1.09375 0.278545,0.139612 0.5734731,0.246947 0.875,0.34375 -0.2562018,-0.100222 -0.4867109,-0.236272 -0.71875,-0.375 -0.00741,-0.0044 -0.023866,0.0045 -0.03125,0 -0.031933,-0.0193 -0.062293,-0.04251 -0.09375,-0.0625 -0.120395,-0.0767 -0.2310226,-0.163513 -0.34375,-0.25 -0.1061728,-0.0808 -0.2132809,-0.161112 -0.3125,-0.25 C 8.4783201,88.557317 8.3087904,88.373362 8.15625,88.1875 8.0486711,88.057245 7.9378561,87.922215 7.84375,87.78125 7.818661,87.74287 7.805304,87.69538 7.78125,87.65625 7.716487,87.553218 7.6510225,87.451733 7.59375,87.34375 7.4927417,87.149044 7.3880752,86.928049 7.3125,86.71875 7.30454,86.69694 7.288911,86.6782 7.28125,86.65625 7.2494249,86.5643 7.2454455,86.469419 7.21875,86.375 7.1884177,86.268382 7.1483606,86.171969 7.125,86.0625 7.0521214,85.720988 7,85.364295 7,85 L 7,83 7,15 7,13 C 7,10.218152 9.2181517,8 12,8 l 2,0 68,0 2,0 c 2.781848,0 5,2.218152 5,5 l 0,2 0,68 0,2 c 0,0.364295 -0.05212,0.720988 -0.125,1.0625 -0.04415,0.206893 -0.08838,0.397658 -0.15625,0.59375 -0.0077,0.02195 -0.0233,0.04069 -0.03125,0.0625 -0.06274,0.173739 -0.138383,0.367449 -0.21875,0.53125 -0.04158,0.0828 -0.07904,0.169954 -0.125,0.25 -0.0546,0.09721 -0.126774,0.18835 -0.1875,0.28125 -0.09411,0.140965 -0.204921,0.275995 -0.3125,0.40625 -0.143174,0.17445 -0.303141,0.346998 -0.46875,0.5 -0.01117,0.0102 -0.01998,0.02115 -0.03125,0.03125 -0.138386,0.125556 -0.285091,0.234436 -0.4375,0.34375 -0.102571,0.07315 -0.204318,0.153364 -0.3125,0.21875 -0.0074,0.0045 -0.02384,-0.0044 -0.03125,0 -0.232039,0.138728 -0.462548,0.274778 -0.71875,0.375 0.301527,-0.0968 0.596455,-0.204138 0.875,-0.34375 0.55709,-0.279224 1.060053,-0.665694 1.5,-1.09375 0.219973,-0.214028 0.409366,-0.441865 0.59375,-0.6875 0.184384,-0.245635 0.355408,-0.507743 0.5,-0.78125 0.14012,-0.265048 0.276135,-0.524729 0.375,-0.8125 0.01041,-0.03078 0.02133,-0.06274 0.03125,-0.09375 0.09046,-0.278085 0.1388,-0.579404 0.1875,-0.875 C 89.95865,84.6507 90,84.334721 90,84 l 0,-2 0,-68 0,-2 C 90,8.676 87.324,6 84,6 L 12,6 z"
       id="rect3728" />
    <path
       id="path3615"
       d="M 12,90 C 8.676,90 6,87.324 6,84 L 6,82 6,14 6,12 c 0,-0.334721 0.04135,-0.6507 0.09375,-0.96875 0.0487,-0.295596 0.09704,-0.596915 0.1875,-0.875 C 6.29113,10.12587 6.302142,10.09265 6.3125,10.0625 6.411365,9.774729 6.5473802,9.515048 6.6875,9.25 6.8320918,8.976493 7.0031161,8.714385 7.1875,8.46875 7.3718839,8.223115 7.5612765,7.995278 7.78125,7.78125 8.221197,7.353194 8.72416,6.966724 9.28125,6.6875 9.559795,6.547888 9.8547231,6.440553 10.15625,6.34375 9.9000482,6.443972 9.6695391,6.580022 9.4375,6.71875 c -0.00741,0.0044 -0.023866,-0.0045 -0.03125,0 -0.031933,0.0193 -0.062293,0.04251 -0.09375,0.0625 -0.120395,0.0767 -0.2310226,0.163513 -0.34375,0.25 -0.1061728,0.0808 -0.2132809,0.161112 -0.3125,0.25 C 8.4783201,7.442683 8.3087904,7.626638 8.15625,7.8125 8.0486711,7.942755 7.9378561,8.077785 7.84375,8.21875 7.818661,8.25713 7.805304,8.30462 7.78125,8.34375 7.716487,8.446782 7.6510225,8.548267 7.59375,8.65625 7.4927417,8.850956 7.3880752,9.071951 7.3125,9.28125 7.30454,9.30306 7.288911,9.3218 7.28125,9.34375 7.2494249,9.4357 7.2454455,9.530581 7.21875,9.625 7.1884177,9.731618 7.1483606,9.828031 7.125,9.9375 7.0521214,10.279012 7,10.635705 7,11 l 0,2 0,68 0,2 c 0,2.781848 2.2181517,5 5,5 l 2,0 68,0 2,0 c 2.781848,0 5,-2.218152 5,-5 l 0,-2 0,-68 0,-2 C 89,10.635705 88.94788,10.279012 88.875,9.9375 88.83085,9.730607 88.78662,9.539842 88.71875,9.34375 88.71105,9.3218 88.69545,9.30306 88.6875,9.28125 88.62476,9.107511 88.549117,8.913801 88.46875,8.75 88.42717,8.6672 88.38971,8.580046 88.34375,8.5 88.28915,8.40279 88.216976,8.31165 88.15625,8.21875 88.06214,8.077785 87.951329,7.942755 87.84375,7.8125 87.700576,7.63805 87.540609,7.465502 87.375,7.3125 87.36383,7.3023 87.35502,7.29135 87.34375,7.28125 87.205364,7.155694 87.058659,7.046814 86.90625,6.9375 86.803679,6.86435 86.701932,6.784136 86.59375,6.71875 c -0.0074,-0.0045 -0.02384,0.0044 -0.03125,0 -0.232039,-0.138728 -0.462548,-0.274778 -0.71875,-0.375 0.301527,0.0968 0.596455,0.204138 0.875,0.34375 0.55709,0.279224 1.060053,0.665694 1.5,1.09375 0.219973,0.214028 0.409366,0.441865 0.59375,0.6875 0.184384,0.245635 0.355408,0.507743 0.5,0.78125 0.14012,0.265048 0.276135,0.524729 0.375,0.8125 0.01041,0.03078 0.02133,0.06274 0.03125,0.09375 0.09046,0.278085 0.1388,0.579404 0.1875,0.875 C 89.95865,11.3493 90,11.665279 90,12 l 0,2 0,68 0,2 c 0,3.324 -2.676,6 -6,6 l -72,0 z"
       style="opacity:0.2;fill:url(#radialGradient3619);fill-opacity:1;fill-rule:nonzero;stroke:none" />
  </g>
  <g
     inkscape:groupmode="layer"
     id="layer5"
     inkscape:label="Highlight"
     sodipodi:insensitive="true"
     style="display:inline">
    <rect
       style="opacity:0.1;fill:url(#linearGradient3613);fill-opacity:1;fill-rule:nonzero;stroke:#ffffff;stroke-width:0.5;stroke-linecap:round;stroke-linejoin:miter;stroke-miterlimit:4;stroke-opacity:1;stroke-dasharray:none;stroke-dashoffset:0;filter:url(#filter3794)"
       id="rect3171"
       width="66"
       height="66"
       x="15"
       y="15"
       rx="12"
       ry="12"
       clip-path="url(#clipPath3613)" />
  </g>
  <g
     inkscape:groupmode="layer"
     id="layer4"
     inkscape:label="Symbol">
    <g
       id="g3666"
       transform="matrix(0.24482333,0,0,0.24482333,12,25)">
      <g
         id="g3617">
	<path
   id="path3619"
   d="m 288.094,90.134 -0.526,-1.158 -2.632,-5.16 C 282.725,80.025 280.198,76.34 277.144,72.76 267.877,61.599 256.611,53.385 243.132,48.331 239.026,41.697 231.76,35.59 221.335,29.904 210.806,24.218 198.802,19.796 185.429,16.847 164.897,12.108 144.363,11.477 124.04,14.741 103.718,18.005 85.08,24.955 68.443,35.485 L 63.706,0 0,13.899 34.117,187.114 76.447,175.531 c 4.317,2.317 9.687,4.739 16.005,7.16 6.529,2.422 13.163,4.528 19.901,6.107 l 13.584,2.738 c 16.953,2.737 33.696,2.737 50.122,0 l 2.737,-0.527 c 20.639,-3.686 40.013,-11.582 58.125,-23.691 5.37,-3.58 10.107,-7.477 14.426,-12.003 6.738,-7.161 12.108,-15.479 16.004,-24.957 3.371,-7.896 5.477,-15.583 6.213,-23.165 l 0.106,-1.686 14.424,-15.373 z"
   style="fill:#809dc9"
   inkscape:connector-curvature="0" />

	
		<radialGradient
   gradientUnits="userSpaceOnUse"
   gradientTransform="matrix(0.0074,-0.1186,0.1883,0.0117,-3230.2681,-3908.6733)"
   r="862.59979"
   cy="19172.264"
   cx="-31885.484"
   id="SVGID_1_">
		<stop
   id="stop3622"
   style="stop-color:#FFCD05"
   offset="0.6039" />

		<stop
   id="stop3624"
   style="stop-color:#CA992C"
   offset="1" />

	</radialGradient>

	<path
   id="path3626"
   d="M 269.457,103.718 283.04,89.292 C 280.198,83.606 276.196,77.92 271.142,72.445 262.508,63.179 252.505,56.334 241.027,51.912 l -0.632,-0.211 -0.42,-0.631 C 236.289,44.857 229.339,39.066 219.231,33.591 209.017,28.01 197.434,23.798 184.587,20.955 163.949,16.322 143.416,15.69 123.093,19.164 102.665,22.64 84.344,29.905 67.917,40.75 L 65.179,42.646 60.02,5.054 4.949,17.058 37.38,181.849 l 39.593,-10.846 0.736,0.526 c 3.37,1.896 7.897,4.001 13.689,6.213 11.478,4.527 23.165,7.686 35.274,9.688 16.532,2.527 32.748,2.527 48.753,0 21.06,-3.475 40.75,-11.373 59.177,-23.692 12.636,-8.423 22.008,-19.691 28.22,-33.695 l 1.686,-4.107 c 1.685,-4.315 2.948,-8.738 3.79,-13.267 l 0.421,-1.791 c 0.527,-2.632 0.737,-4.737 0.737,-6.317 v -0.843 z"
   style="fill:url(#SVGID_1_)"
   inkscape:connector-curvature="0" />

	<radialGradient
   gradientUnits="userSpaceOnUse"
   r="124.2104"
   cy="115.6157"
   cx="129.6548"
   id="SVGID_2_">
		<stop
   id="stop3629"
   style="stop-color:#809DC9"
   offset="0" />

		<stop
   id="stop3631"
   style="stop-color:#496FA8"
   offset="1" />

	</radialGradient>

	<path
   id="path3633"
   d="m 255.724,108.866 c 0.214,-1.923 0.323,-3.865 0.323,-5.826 0,-17.299 -8.478,-33.228 -22.712,-45.917 l 0.951,0.265 -9.688,-7.687 c -10.213,-7.055 -21.796,-12.32 -34.957,-16.216 -13.584,-4.001 -27.799,-6.002 -42.751,-6.002 -14.953,0 -29.168,2.001 -42.752,6.002 C 91.083,37.38 79.395,42.646 69.286,49.7 l -8.108,6.107 -0.105,-0.421 0.395,2 c -14.057,12.646 -22.42,28.473 -22.42,45.653 0,25.407 18.281,47.86 46.243,61.427 l 0.001,0.009 -2.317,0.526 c 6.528,3.159 13.688,5.896 21.165,8.107 13.583,3.896 27.799,5.896 42.752,5.896 14.952,0 29.167,-2 42.751,-5.896 13.161,-3.896 24.744,-9.161 34.957,-16.215 10.11,-7.057 17.901,-14.952 23.483,-24.114 4.947,-8.002 7.686,-16.11 8.423,-24.745 l -0.782,0.832 z"
   style="fill:url(#SVGID_2_)"
   inkscape:connector-curvature="0" />

	<path
   id="path3635"
   d="m 206.173,157.42 c 0.105,1.263 0.315,2.527 0.421,3.789 0.632,-0.63 1.054,-1.157 1.054,-1.789 0,-0.632 -0.422,-1.369 -1.475,-2 z m -40.434,5.686 0.526,-12.109 c -5.476,-0.211 -11.478,-0.421 -17.795,-0.421 -1.369,0 -2.738,0 -4.001,0.104 l 0.63,8.003 -28.64,8.108 c 9.477,0.947 20.112,1.369 32.011,1.475 13.373,-0.105 25.06,-0.633 35.17,-1.792 -4.634,-0.735 -10.005,-1.684 -16.112,-2.947 l -1.789,-0.421 z M 89.292,159.42 c 0,2.211 4.738,4.106 14.005,5.686 0.21,-3.79 0.421,-7.686 0.421,-11.583 -9.582,1.685 -14.426,3.685 -14.426,5.897 z"
   style="fill:#5777a4"
   inkscape:connector-curvature="0" />

	
		<radialGradient
   gradientUnits="userSpaceOnUse"
   gradientTransform="matrix(0.0468,0.0285,-0.0494,0.0812,-3817.5215,-3079.502)"
   r="862.59912"
   cy="6551.1733"
   cx="92841.664"
   id="SVGID_3_">
		<stop
   id="stop3638"
   style="stop-color:#ED2024"
   offset="0" />

		<stop
   id="stop3640"
   style="stop-color:#A21D21"
   offset="1" />

	</radialGradient>

	<path
   id="path3642"
   d="m 269.667,87.397 c -2.422,-4.212 -6.107,-8.214 -10.636,-12.109 -4.423,-3.896 -9.477,-7.055 -14.952,-9.688 -4.105,-1.896 -8.318,-3.475 -12.846,-4.844 -10.424,-2.948 -20.007,-2.527 -28.641,1.158 -5.897,2.632 -11.689,7.055 -17.374,13.268 -2.002,2.211 -3.896,5.792 -5.476,10.635 l 27.167,1.79 -34.433,26.429 0.737,3.896 12.214,38.75 -14.741,-9.583 -0.526,12.637 c 7.159,1.473 13.898,2.527 20.112,3.158 6.633,0.738 10.635,0.843 12.214,0.211 l -0.105,-1.369 c -0.211,-2.212 -0.422,-4.212 -0.526,-6.212 -0.422,-5.688 -0.526,-10.952 -0.526,-15.795 0,-20.112 3.159,-33.695 9.371,-40.962 3.159,-3.685 6.949,-5.685 11.478,-6.001 8.635,-0.631 15.689,0.948 21.271,4.528 3.79,2.316 6.527,5.582 8.529,9.582 l 17.689,-19.479 z"
   style="fill:url(#SVGID_3_)"
   inkscape:connector-curvature="0" />

	
		<radialGradient
   gradientUnits="userSpaceOnUse"
   gradientTransform="matrix(0.0708,-0.0192,0.0292,0.1078,-3590.1204,-3187.3792)"
   r="862.60059"
   cy="36904.184"
   cx="36359.793"
   id="SVGID_4_">
		<stop
   id="stop3645"
   style="stop-color:#35459C"
   offset="0" />

		<stop
   id="stop3647"
   style="stop-color:#22205F"
   offset="1" />

	</radialGradient>

	<path
   id="path3649"
   d="M 123.62,87.501 C 115.933,78.867 104.561,72.865 89.503,69.707 83.185,68.443 76.656,67.706 69.708,67.496 L 59.178,67.917 50.122,19.48 17.9,25.798 46.226,167.95 80.343,161.106 C 74.236,130.463 70.655,110.562 69.708,101.507 l -0.211,-2.002 2.106,-0.314 c 8.95,-1.159 16.532,0.314 22.428,4.316 4.107,2.844 7.582,7.055 10.53,12.636 2.317,4.423 3.475,14.32 3.475,29.904 0,2.211 0,4.528 0,6.95 -0.105,3.79 -0.316,7.792 -0.527,12.004 l 33.274,-9.372 c -0.105,-1.684 -0.211,-3.265 -0.316,-4.844 -0.21,-4.316 -0.632,-8.634 -1.053,-12.846 L 113.09,157.419 125.937,113.72 90.03,88.977 123.62,87.501 z"
   style="fill:url(#SVGID_4_)"
   inkscape:connector-curvature="0" />

</g>
      <path
         id="path3656"
         d="m 192.8,49.806 c 0,-2.632 -1.053,-4.844 -3.054,-6.529 -2.106,-1.685 -10.108,-3.791 -24.112,-6.318 -13.9,-2.632 -28.115,-2.632 -42.647,0 -14.425,2.527 -22.639,4.738 -24.745,6.423 -2.106,1.58 -3.159,3.792 -3.159,6.424 0,2.738 1.159,4.949 3.37,6.844 2.317,1.79 10.741,1.58 25.376,-0.737 6.212,-0.948 13.268,-1.263 21.165,-1.158 2,0 4.107,0.104 6.212,0.21 9.16,0.527 19.374,1.685 30.747,3.475 l 1.053,0.526 c 2.212,0.105 4.317,-0.631 6.424,-2.316 2.318,-1.895 3.37,-4.107 3.37,-6.844 z"
         style="fill:url(#SVGID_5_)"
         inkscape:connector-curvature="0" />
      <path
         id="path3658"
         d="m 274.196,86.871 -2.212,-3.791 c -2,-2.843 -4.212,-5.581 -6.95,-8.213 -7.37,-7.266 -16.637,-12.741 -27.693,-16.426 -0.947,-0.421 -1.999,-0.737 -3.054,-1.053 l -1.894,-0.526 c -19.271,-5.581 -35.907,-0.422 -50.228,15.479 -2.527,2.738 -4.845,7.161 -6.739,13.162 l -14.11,-0.948 -13.268,-38.75 -14.004,41.276 -5.054,0.211 c -0.308,-0.403 -0.631,-0.793 -0.951,-1.186 l 0,0 C 120.588,76.957 109.855,70.599 95.821,66.864 85.081,63.916 74.024,62.757 62.653,63.389 l -1.58,-8.002 v -0.105 l -7.582,-40.856 -40.54,8.108 30.01,150.365 40.013,-7.897 2.317,-0.526 -5.055,-26.219 c -3.159,-17.06 -5.265,-28.746 -6.107,-35.065 7.161,-0.525 13.057,0.633 17.69,3.896 3.475,2.424 6.423,6.108 9.055,11.162 1.79,3.265 2.632,11.057 2.843,23.271 0.105,4.108 0.105,8.108 0,12.004 0,3.897 -0.211,7.793 -0.421,11.583 -0.105,0.844 -0.105,1.686 -0.105,2.527 l -0.21,2.949 13.478,-3.791 28.64,-8.108 -0.63,-8.003 -1.159,-15.583 4.106,-3.159 19.164,12.53 -0.315,6.528 -0.526,12.109 1.789,0.421 c 6.107,1.264 11.479,2.212 16.112,2.947 12.214,1.896 19.479,1.687 21.901,-0.42 0.842,-0.737 1.157,-1.579 1.157,-2.633 l -0.104,-2.105 c 0,0 0,0 0,-0.106 -0.105,-1.262 -0.315,-2.526 -0.421,-3.789 -2.106,-28.747 0.421,-47.385 7.687,-56.019 2.421,-2.738 5.37,-4.212 8.634,-4.423 9.582,-0.631 16.848,1.475 21.903,6.318 1.579,1.474 2.842,3.158 3.79,5.16 0.526,1.054 0.737,2.001 0.947,2.633 l 0.737,4.001 6.634,-7.056 18.321,-19.901 -0.63,-1.264 z m -166.687,78.13 c 0.211,-4.212 0.421,-8.214 0.527,-12.004 0,-2.422 0,-4.739 0,-6.95 0,-15.584 -1.158,-25.481 -3.475,-29.904 -2.948,-5.581 -6.423,-9.792 -10.53,-12.636 -5.896,-4.002 -13.478,-5.476 -22.428,-4.316 l -2.106,0.314 0.211,2.002 c 0.947,9.055 4.527,28.956 10.635,59.599 L 46.226,167.95 17.9,25.798 50.121,19.48 l 9.056,48.437 10.53,-0.421 c 6.949,0.21 13.478,0.948 19.795,2.211 15.058,3.159 26.43,9.161 34.117,17.794 l -33.59,1.475 35.907,24.745 -12.846,43.699 26.324,-19.48 c 0.421,4.212 0.843,8.529 1.053,12.846 0.105,1.579 0.21,3.16 0.316,4.844 l -33.274,9.371 z m 144.469,-58.125 c -2.002,-4 -4.739,-7.266 -8.529,-9.582 -5.581,-3.58 -12.636,-5.16 -21.271,-4.528 -4.528,0.316 -8.318,2.317 -11.478,6.001 -6.212,7.267 -9.371,20.85 -9.371,40.962 0,4.843 0.104,10.107 0.526,15.795 0.104,2 0.315,4 0.526,6.212 l 0.105,1.369 c -1.579,0.632 -5.581,0.527 -12.214,-0.211 -6.214,-0.631 -12.953,-1.686 -20.112,-3.158 l 0.526,-12.637 14.741,9.583 -12.214,-38.75 -0.737,-3.896 34.433,-26.429 -27.167,-1.79 c 1.58,-4.844 3.474,-8.424 5.476,-10.635 5.685,-6.212 11.477,-10.635 17.374,-13.268 8.634,-3.685 18.217,-4.106 28.641,-1.158 4.527,1.369 8.74,2.948 12.846,4.844 5.476,2.632 10.529,5.792 14.952,9.688 4.528,3.896 8.214,7.897 10.636,12.109 l -17.689,19.479 z"
         style="fill:#ffffff"
         inkscape:connector-curvature="0" />
    </g>
  </g>
</svg>
